<?xml version="1.0" encoding="utf-8"?>
<!-- Generator: Adobe Illustrator 19.0.0, SVG Export Plug-In . SVG Version: 6.00 Build 0)  -->
<svg version="1.1" id="Capa_1" xmlns="http://www.w3.org/2000/svg" xmlns:xlink="http://www.w3.org/1999/xlink" x="0px" y="0px"
	 viewBox="-49 141 512 512" style="enable-background:new -49 141 512 512;" xml:space="preserve">
<style type="text/css">
	.st0{fill:#FFFFFF;}
</style>
<g>
	<g>
		<path class="st0" d="M278.6,172.4c-2.5-6.3-6.3-11.9-11.1-16.7c-4.8-4.8-10.4-8.5-16.6-11.1c-6-2.5-12.4-3.7-18.9-3.7h-0.1
			c-5.3,0-10.6,0.8-15.7,2.5c-5.2,1.7-10,4.2-14.4,7.5c-4.4-3.3-9.2-5.8-14.4-7.5c-5.1-1.7-10.3-2.5-15.7-2.5h-0.1
			c-6.5,0-12.9,1.2-18.9,3.7c-6.3,2.5-11.9,6.3-16.6,11.1c-1.6,1.6-3.1,3.3-4.5,5.1c-1.3,1.7-1.8,3.7-1.5,5.8c0.3,2.1,1.4,3.9,3,5.2
			c1.4,1,3,1.6,4.7,1.6c2.5,0,4.7-1.1,6.2-3.1c0.9-1.2,2-2.4,3.1-3.6c6.6-6.6,15.3-10.2,24.6-10.2c9.3,0,18,3.6,24.6,10.2
			c1.5,1.5,3.4,2.3,5.5,2.3s4-0.8,5.5-2.3c6.6-6.6,15.3-10.2,24.6-10.2c9.3,0,18,3.6,24.6,10.2c6.6,6.6,10.2,15.3,10.2,24.6
			c0,9.3-3.6,18-10.2,24.6l-54.7,54.7L147.1,216c-3-3-5.3-6.4-7.1-10.2c-1.7-3.6-2.7-7.5-3-11.6c-0.2-2-1-3.8-2.5-5.1
			c-1.6-1.5-3.7-2.2-5.9-2c-4.3,0.4-7.5,4.1-7.1,8.4v0c1,11.9,6.1,23.1,14.6,31.5l60.2,60.2c1.4,1.4,3.5,2.3,5.5,2.3
			c2.1,0,4.1-0.8,5.5-2.3l50.7-50.7c0,0,0.1-0.1,0.1-0.1c0,0,0,0,0,0l9.4-9.4c4.8-4.8,8.5-10.4,11.1-16.7c2.5-6.1,3.7-12.4,3.7-19
			C282.3,184.8,281.1,178.5,278.6,172.4z"/>
	</g>
</g>
<g>
	<g>
		<path class="st0" d="M160.3,523.2h-23.4l0-17.2c19.1-16.7,31.1-41.2,31.1-68.4v-29.9c6.1-30.6,3.3-53.3-8.3-67.5
			c-7.3-8.9-16.4-12.3-22.8-13.6v-34.5c0-4.3-3.5-7.8-7.8-7.8c-3,0-6,0-9.1,0c-3.2,0-6.5,0-9.8,0c-37.6,0-79.8,2.4-104.8,30.8
			c-18,20.4-24.3,50.6-19.1,92.2v30.3c0,27.3,12.1,51.8,31.2,68.4v17.2H-5.9c-21.5,0-38.9,17.5-38.9,38.9v83.1
			c0,4.3,3.5,7.8,7.8,7.8h228.5c4.3,0,7.8-3.5,7.8-7.8v-83.1c0,0,0,0,0,0C199.2,540.7,181.7,523.2,160.3,523.2z M17.1,325.3
			c20.8-23.5,59-25.5,93.1-25.5c3.3,0,6.5,0,9.7,0c0.5,0,0.9,0,1.4,0v33.8c0,2.1,0.9,4.2,2.4,5.7c1.6,1.5,3.6,2.2,5.8,2.1
			c0.7,0,11-0.2,18.2,8.6c5.3,6.5,8,16.4,7.9,29.3l-3.4-6.8c-1.7-3.4-5.7-5.1-9.3-3.9c-0.5,0.1-46.6,14.8-73.2,14.8
			c-25.5,0-48.6-13.8-48.9-14c-3.4-2.1-7.9-1.2-10.3,2L0.2,385.1C-0.4,358.8,5.2,338.7,17.1,325.3z M1.9,437.5v-28.7l17.1-22.7
			C28.5,390.9,48,399,69.6,399c23.1,0,57.4-9.4,71.6-13.5l11.2,22.5v29.6c0,41.5-33.8,75.3-75.3,75.3C35.7,512.8,1.9,479,1.9,437.5z
			 M121.3,516.9l0,9.9l-23.9,15.9L85,536.5V528C98.1,526.9,110.4,523,121.3,516.9z M69.4,528v8l-16.8,6.7L33,527.2v-10.3
			C44,523,56.3,526.9,69.4,528z M183.6,562.1v75.3h0h-36.3v-23.4c0-4.3-3.5-7.8-7.8-7.8s-7.8,3.5-7.8,7.8v23.4H22.7v-23.4
			c0-4.3-3.5-7.8-7.8-7.8s-7.8,3.5-7.8,7.8v23.4h-36.3v-75.3c0-12.9,10.5-23.4,23.4-23.4h28.4l23.8,19.1c0.1,0.1,0.2,0.1,0.2,0.1
			c0.2,0.2,0.4,0.3,0.7,0.4c0.1,0.1,0.3,0.2,0.4,0.2c0.2,0.1,0.4,0.2,0.7,0.3c0.2,0.1,0.3,0.1,0.5,0.2c0.3,0.1,0.5,0.1,0.8,0.2
			c0.1,0,0.3,0.1,0.4,0.1c0.4,0.1,0.8,0.1,1.2,0.1c0.3,0,0.5,0,0.8,0c0,0,0.1,0,0.1,0c0.2,0,0.4-0.1,0.6-0.1c0.1,0,0.2,0,0.3-0.1
			c0.2,0,0.3-0.1,0.5-0.1c0.1,0,0.2-0.1,0.3-0.1c0.1,0,0.1,0,0.2-0.1l22.7-9.1l17.5,8.7c0,0,0,0,0,0l0.1,0.1
			c0.1,0.1,0.2,0.1,0.3,0.1c0.2,0.1,0.3,0.1,0.5,0.2c0.2,0.1,0.4,0.1,0.6,0.2c0.1,0,0.2,0.1,0.3,0.1c0.3,0.1,0.6,0.1,0.8,0.2
			c0,0,0,0,0.1,0c0.3,0,0.6,0.1,0.9,0.1c0.4,0,0.7,0,1.1-0.1c0.2,0,0.3-0.1,0.5-0.1c0.2,0,0.4-0.1,0.6-0.1c0.2,0,0.3-0.1,0.5-0.2
			c0.2-0.1,0.4-0.1,0.6-0.2c0.1-0.1,0.3-0.1,0.4-0.2c0.2-0.1,0.4-0.2,0.6-0.3c0,0,0.1,0,0.1-0.1l29.2-19.5h28.8
			C173.1,538.8,183.6,549.2,183.6,562.1C183.6,562.1,183.6,562.1,183.6,562.1z"/>
	</g>
</g>
<g>
	<g>
		<path class="st0" d="M458.8,385.5c0-67.3-54.8-122-122-122c-67.3,0-122,54.7-122,122v187v72.7c0,4.3,3.5,7.8,7.8,7.8h228.5
			c4.3,0,7.8-3.5,7.8-7.8v-72.7c0,0,0,0,0,0L458.8,385.5C458.8,385.5,458.8,385.5,458.8,385.5z M443.3,572.5v64.9h0h-36.3v-23.4
			c0-4.3-3.5-7.8-7.8-7.8s-7.8,3.5-7.8,7.8v23.4H282.3v-23.4c0-4.3-3.5-7.8-7.8-7.8s-7.8,3.5-7.8,7.8v23.4h-36.3v-64.9
			c0-12.9,10.5-23.4,23.4-23.4h23.9c3.8,29.3,28.9,51.9,59.2,51.9s55.4-22.7,59.2-51.9h23.9C432.8,549.1,443.3,559.6,443.3,572.5
			C443.3,572.5,443.3,572.5,443.3,572.5z M305.7,549.1c4.3,0,7.8-3.5,7.8-7.8v-16c7.5,2,15.3,3,23.4,3c8.1,0,15.9-1.1,23.4-3.1l0,16
			v0c0,0,0,0,0,0c0,0.1,0,0.3,0,0.4c0,0.1,0,0.3,0,0.4c0,0.1,0,0.2,0.1,0.4c0,0.1,0,0.3,0.1,0.4c0,0.1,0.1,0.2,0.1,0.4
			c0,0.1,0.1,0.3,0.1,0.4c0,0.1,0.1,0.3,0.1,0.4c0,0.1,0.1,0.2,0.1,0.3c0.1,0.2,0.2,0.4,0.3,0.5c0,0,0,0.1,0.1,0.1
			c1.1,2,3,3.4,5.3,3.9c0,0,0,0,0,0c0.2,0,0.4,0.1,0.6,0.1c0.1,0,0.1,0,0.2,0c0.2,0,0.3,0,0.5,0c0.1,0,0.2,0,0.3,0c0,0,0,0,0,0h12.3
			c-3.7,20.6-21.8,36.3-43.4,36.3c-21.7,0-39.7-15.7-43.4-36.3H305.7L305.7,549.1z M261.5,437.5v-33.8h0h150.6v33.8
			c0,41.5-33.8,75.3-75.3,75.3C295.3,512.8,261.5,479,261.5,437.5z M443.3,541.4c-6.5-4.9-14.6-7.8-23.4-7.8H389c-0.1,0-0.2,0-0.3,0
			s-0.2,0-0.3,0h-12.7l0-14c30.7-14.6,51.9-45.9,51.9-82.1V396c0-4.3-3.5-7.8-7.8-7.8h-13v-13c0-4.3-3.5-7.8-7.8-7.8
			s-7.8,3.5-7.8,7.8v13h-15.6v-13c0-4.3-3.5-7.8-7.8-7.8s-7.8,3.5-7.8,7.8v13h-15.6v-13c0-4.3-3.5-7.8-7.8-7.8s-7.8,3.5-7.8,7.8v13
			h-15.6v-13c0-4.3-3.5-7.8-7.8-7.8s-7.8,3.5-7.8,7.8v13h-15.6v-13c0-4.3-3.5-7.8-7.8-7.8s-7.8,3.5-7.8,7.8v13h-13
			c-4.3,0-7.8,3.5-7.8,7.8v41.6c0,36.2,21.3,67.5,51.9,82.1v14h-12.7c-0.1,0-0.2,0-0.3,0c-0.1,0-0.2,0-0.3,0h-30.9
			c-8.8,0-16.9,2.9-23.4,7.8V385.5c0-58.7,47.8-106.5,106.4-106.5c58.7,0,106.5,47.8,106.5,106.5c0,0,0,0,0,0V541.4z"/>
	</g>
</g>
</svg>
