<?xml version="1.0" encoding="utf-8"?>
<!-- Generator: Adobe Illustrator 19.0.0, SVG Export Plug-In . SVG Version: 6.00 Build 0)  -->
<svg version="1.1" id="Capa_1" xmlns="http://www.w3.org/2000/svg" xmlns:xlink="http://www.w3.org/1999/xlink" x="0px" y="0px"
	 viewBox="-49 141 512 512" style="enable-background:new -49 141 512 512;" xml:space="preserve">
<style type="text/css">
	.st0{fill:#FFFFFF;}
</style>
<g>
	<g>
		<path class="st0" d="M365,289.8c5.5,0,10-4.5,10-10V171c0-16.5-13.5-30-30-30H-19c-16.5,0-30,13.5-30,30v452c0,16.5,13.5,30,30,30
			h364c16.5,0,30-13.5,30-30v-73.7c0-5.5-4.5-10-10-10s-10,4.5-10,10V623c0,5.5-4.5,10-10,10H-19c-5.5,0-10-4.5-10-10V171
			c0-5.5,4.5-10,10-10h364c5.5,0,10,4.5,10,10v108.8C355,285.3,359.5,289.8,365,289.8z"/>
	</g>
</g>
<g>
	<g>
		<path class="st0" d="M163,195c-50.7,0-92,41.3-92,92c0,26.3,11.1,50.1,28.9,66.9c0.3,0.4,0.7,0.7,1.1,1c16.4,15,38.2,24.1,62,24.1
			s45.7-9.2,62-24.1c0.4-0.3,0.7-0.6,1.1-1c17.8-16.8,28.9-40.6,28.9-66.9C255,236.3,213.7,195,163,195z M163,359
			c-16.3,0-31.4-5.5-43.5-14.7c8.8-15.6,25.2-25.3,43.5-25.3s34.7,9.7,43.5,25.3C194.4,353.5,179.3,359,163,359z M147,283v-6.5
			c0-8.8,7.2-16,16-16s16,7.2,16,16v6.5c0,8.8-7.2,16-16,16S147,291.8,147,283z M220.9,329.7c-7.4-10.9-17.6-19.4-29.5-24.7
			c4.7-6.1,7.5-13.7,7.5-22v-6.5c0-19.9-16.1-36-36-36s-36,16.1-36,36v6.5c0,8.3,2.8,15.9,7.5,22c-11.9,5.3-22.1,13.8-29.5,24.7
			C96.2,317.7,91,303,91,287c0-39.7,32.3-72,72-72s72,32.3,72,72C235,303,229.8,317.7,220.9,329.7z"/>
	</g>
</g>
<g>
	<g>
		<path class="st0" d="M217,579h-54c-5.5,0-10,4.5-10,10s4.5,10,10,10h54c5.5,0,10-4.5,10-10S222.5,579,217,579z"/>
	</g>
</g>
<g>
	<g>
		<path class="st0" d="M217,523H75c-5.5,0-10,4.5-10,10s4.5,10,10,10h142c5.5,0,10-4.5,10-10S222.5,523,217,523z"/>
	</g>
</g>
<g>
	<g>
		<path class="st0" d="M217,467H75c-5.5,0-10,4.5-10,10s4.5,10,10,10h142c5.5,0,10-4.5,10-10S222.5,467,217,467z"/>
	</g>
</g>
<g>
	<g>
		<path class="st0" d="M39.4,413.9c-1.9-1.9-4.4-2.9-7.1-2.9c-2.6,0-5.2,1.1-7.1,2.9c-1.9,1.9-2.9,4.4-2.9,7.1s1.1,5.2,2.9,7.1
			c1.9,1.9,4.4,2.9,7.1,2.9c2.6,0,5.2-1.1,7.1-2.9c1.9-1.9,2.9-4.4,2.9-7.1S41.2,415.8,39.4,413.9z"/>
	</g>
</g>
<g>
	<g>
		<path class="st0" d="M39.4,469.9c-1.9-1.9-4.4-2.9-7.1-2.9c-2.6,0-5.2,1.1-7.1,2.9c-1.9,1.9-2.9,4.4-2.9,7.1s1.1,5.2,2.9,7.1
			c1.9,1.9,4.4,2.9,7.1,2.9c2.6,0,5.2-1.1,7.1-2.9c1.9-1.9,2.9-4.4,2.9-7.1S41.2,471.8,39.4,469.9z"/>
	</g>
</g>
<g>
	<g>
		<path class="st0" d="M39.4,525.9c-1.9-1.9-4.4-2.9-7.1-2.9c-2.6,0-5.2,1.1-7.1,2.9c-1.9,1.9-2.9,4.4-2.9,7.1s1.1,5.2,2.9,7.1
			c1.9,1.9,4.4,2.9,7.1,2.9c2.6,0,5.2-1.1,7.1-2.9c1.9-1.9,2.9-4.4,2.9-7.1S41.2,527.8,39.4,525.9z"/>
	</g>
</g>
<g>
	<g>
		<path class="st0" d="M217,411H75c-5.5,0-10,4.5-10,10s4.5,10,10,10h142c5.5,0,10-4.5,10-10S222.5,411,217,411z"/>
	</g>
</g>
<g>
	<g>
		<path class="st0" d="M442,271.3c-9.7-5.6-21-7.1-31.9-4.2c-10.8,2.9-19.9,9.9-25.5,19.6l-125.8,218c-0.7,1.2-1.1,2.5-1.3,3.9
			l-8.9,79.3c-0.4,3.9,1.5,7.8,4.9,9.8c1.6,0.9,3.3,1.3,5,1.3c2.1,0,4.2-0.7,5.9-1.9l64.3-47.3c1.1-0.8,2-1.9,2.7-3.1l125.8-218
			C469,308.6,462.1,282.9,442,271.3z M271.1,567.4l4.6-41.4l28.9,16.7L271.1,567.4z M319.2,528l-38.1-22l101-174.9l38.1,22
			L319.2,528z M440.1,318.7l-9.9,17.1l-38.1-22l9.9-17.1c2.9-5.1,7.7-8.7,13.4-10.3c5.7-1.5,11.6-0.7,16.7,2.2
			c5.1,2.9,8.7,7.7,10.3,13.4C443.8,307.7,443,313.6,440.1,318.7z"/>
	</g>
</g>
</svg>
