<?xml version="1.0" encoding="utf-8"?>
<!-- Generator: Adobe Illustrator 19.0.0, SVG Export Plug-In . SVG Version: 6.00 Build 0)  -->
<svg version="1.1" id="Layer_1" xmlns="http://www.w3.org/2000/svg" xmlns:xlink="http://www.w3.org/1999/xlink" x="0px" y="0px"
	 viewBox="-49 141 512 512" style="enable-background:new -49 141 512 512;" xml:space="preserve">
<style type="text/css">
	.st0{fill:#FFFFFF;}
</style>
<path class="st0" d="M207,241c-5.5,0-10,4.5-10,10s4.5,10,10,10s10-4.5,10-10S212.5,241,207,241z"/>
<path class="st0" d="M41,421c5.5,0,10-4.5,10-10s-4.5-10-10-10s-10,4.5-10,10S35.5,421,41,421z"/>
<path class="st0" d="M287,141c-90,0-163.9,62.1-169.6,140.3C31.6,285.6-49,347.4-49,431c0,34.9,13.8,68.8,39,95.6
	c5,20.5-1.1,42.3-16.1,57.3c-2.9,2.9-3.7,7.2-2.2,10.9c1.5,3.7,5.2,6.2,9.2,6.2c28.5,0,56-11.2,76.4-30.9
	c19.9,6.8,45.9,10.9,69.6,10.9c90,0,163.9-62.1,169.6-140.2c20.9-0.9,42.7-4.8,59.9-10.7C377,449.8,404.5,461,433,461
	c4,0,7.7-2.4,9.2-6.2c1.5-3.7,0.7-8-2.2-10.9c-15-15-21.1-36.8-16.1-57.3c25.2-26.8,39-60.7,39-95.6C463,204.1,376.2,141,287,141z
	 M127,561c-23.6,0-50.5-4.6-68.5-11.8c-3.9-1.5-8.3-0.5-11.1,2.5c-12.1,13.2-27.8,22.4-44.9,26.6c9.4-18.1,11.8-39.3,6.1-59.5
	c-0.5-1.6-1.3-3-2.4-4.2C-16.5,491.3-29,461.6-29,431c0-70.5,71.4-130,156-130c79.9,0,150,55.5,150,130C277,502.7,209.7,561,127,561
	z M407.8,374.6c-1.2,1.2-2,2.6-2.4,4.2c-5.7,20.2-3.3,41.5,6.1,59.5c-17.1-4.2-32.8-13.4-44.9-26.6c-2.8-3.1-7.2-4.1-11.1-2.5
	c-15.6,6.2-37.9,10.5-58.9,11.6c-2.9-37.8-21.8-73.4-54-99.8H373c5.5,0,10-4.5,10-10s-4.5-10-10-10H211.8
	c-22.7-11.6-48.2-18.3-74.4-19.7C143.2,214.1,208.1,161,287,161c84.6,0,156,59.5,156,130C443,321.6,430.5,351.3,407.8,374.6z"/>
<path class="st0" d="M207,401H81c-5.5,0-10,4.5-10,10s4.5,10,10,10h126c5.5,0,10-4.5,10-10S212.5,401,207,401z"/>
<path class="st0" d="M207,461H41c-5.5,0-10,4.5-10,10s4.5,10,10,10h166c5.5,0,10-4.5,10-10S212.5,461,207,461z"/>
<path class="st0" d="M373,241H247c-5.5,0-10,4.5-10,10s4.5,10,10,10h126c5.5,0,10-4.5,10-10S378.5,241,373,241z"/>
</svg>
